<?xml version="1.0" encoding="utf-8"?>
<!-- Generator: Adobe Illustrator 24.1.2, SVG Export Plug-In . SVG Version: 6.00 Build 0)  -->
<svg version="1.1" id="Слой_1" xmlns="http://www.w3.org/2000/svg" xmlns:xlink="http://www.w3.org/1999/xlink" x="0px" y="0px"
	 viewBox="0 0 199 50" style="enable-background:new 0 0 199 50;" xml:space="preserve">
<style type="text/css">
	.st0{fill:#FFB8CA;}
	.st1{fill:#D81442;}
	.st2{fill:#D01740;}
	.st3{fill:none;stroke:#FFFFFF;stroke-width:2.5;stroke-miterlimit:10;}
	.st4{fill:none;stroke:#FFFFFF;stroke-width:2;stroke-miterlimit:10;}
	.st5{fill:none;stroke:#FFFFFF;stroke-width:3;stroke-miterlimit:10;}
	.st6{fill:#D01740;stroke:#FFFFFF;stroke-width:2;stroke-miterlimit:10;}
</style>
<rect class="st0" width="199" height="50"/>
<g>
	<path class="st1" d="M78.76,34.5c-0.99,0.11-1.99,0.16-2.98,0.16c-1,0-1.64-0.04-1.91-0.13c-0.28-0.09-0.41-0.24-0.41-0.45V18.92
		c0-0.36,0.47-0.71,1.41-1.06c0.94-0.35,2-0.52,3.17-0.52c1.04,0,1.72,0.22,2.05,0.66c0.11,0.16,0.17,0.33,0.17,0.49v15.59
		C80.24,34.25,79.75,34.39,78.76,34.5z"/>
	<path class="st1" d="M94.39,34.47c-0.65,0.15-1.31,0.26-1.99,0.32s-1.33,0.09-1.97,0.09s-1.14-0.02-1.49-0.05
		c-0.35-0.03-0.81-0.11-1.38-0.24s-1.09-0.31-1.56-0.54c-0.47-0.23-0.97-0.56-1.5-1s-0.97-0.96-1.33-1.56
		c-0.83-1.4-1.24-3.2-1.24-5.41c0-1.48,0.23-2.78,0.69-3.92c0.46-1.14,1.02-2.01,1.68-2.63c0.66-0.62,1.41-1.11,2.25-1.49
		c1.36-0.62,2.74-0.93,4.12-0.93c1.98,0,3.4,0.16,4.26,0.49c0.39,0.15,0.74,0.37,1.05,0.68c0.31,0.31,0.46,0.76,0.46,1.34
		s-0.14,1.32-0.43,2.22s-0.69,1.34-1.23,1.34c-0.16,0-0.76-0.13-1.8-0.39c-1.04-0.26-1.75-0.39-2.12-0.39
		c-0.57,0-1.05,0.32-1.45,0.95c-0.4,0.63-0.6,1.53-0.6,2.7c0,1.17,0.17,2.08,0.52,2.73c0.35,0.65,0.81,0.97,1.38,0.97
		c0.41,0,1.14-0.17,2.2-0.5c1.06-0.33,1.68-0.5,1.86-0.5c0.5,0,0.9,0.46,1.18,1.39s0.43,1.67,0.43,2.24s-0.17,1.02-0.52,1.35
		C95.54,34.07,95.04,34.32,94.39,34.47z"/>
	<path class="st1" d="M110.52,34.65h-10.33c-0.8,0-1.33-0.06-1.61-0.17c-0.28-0.11-0.41-0.29-0.41-0.54V18.53
		c0-0.42,0.19-0.72,0.57-0.9c0.38-0.18,1.07-0.27,2.06-0.27h9.79c0.34,0,0.51,0.56,0.51,1.69s-0.07,1.99-0.22,2.58
		s-0.34,0.89-0.58,0.89c-1.06,0-2.83-0.11-5.33-0.32v1.63c2.4-0.1,3.97-0.15,4.7-0.15c0.44,0,0.66,0.51,0.66,1.53
		c0,1.02-0.08,1.8-0.26,2.33c-0.17,0.53-0.4,0.79-0.69,0.79l-4.41-0.1v1.56c2.83-0.21,4.78-0.32,5.85-0.32
		c0.34,0,0.51,0.57,0.51,1.71s-0.07,2-0.22,2.58C110.96,34.36,110.76,34.65,110.52,34.65z"/>
	<path class="st1" d="M125.23,34.47c-0.65,0.15-1.31,0.26-1.99,0.32s-1.33,0.09-1.97,0.09c-0.64,0-1.14-0.02-1.49-0.05
		c-0.35-0.03-0.81-0.11-1.38-0.24c-0.57-0.13-1.09-0.31-1.56-0.54c-0.47-0.23-0.97-0.56-1.5-1c-0.53-0.44-0.97-0.96-1.33-1.56
		c-0.83-1.4-1.24-3.2-1.24-5.41c0-1.48,0.23-2.78,0.69-3.92s1.02-2.01,1.68-2.63c0.66-0.62,1.41-1.11,2.25-1.49
		c1.36-0.62,2.74-0.93,4.12-0.93c1.98,0,3.4,0.16,4.26,0.49c0.39,0.15,0.74,0.37,1.05,0.68c0.31,0.31,0.46,0.76,0.46,1.34
		s-0.14,1.32-0.43,2.22s-0.69,1.34-1.23,1.34c-0.16,0-0.76-0.13-1.8-0.39s-1.75-0.39-2.12-0.39c-0.57,0-1.05,0.32-1.45,0.95
		c-0.4,0.63-0.6,1.53-0.6,2.7c0,1.17,0.17,2.08,0.52,2.73c0.35,0.65,0.81,0.97,1.38,0.97c0.41,0,1.14-0.17,2.21-0.5
		s1.68-0.5,1.86-0.5c0.5,0,0.9,0.46,1.18,1.39s0.43,1.67,0.43,2.24s-0.17,1.02-0.52,1.35C126.38,34.07,125.88,34.32,125.23,34.47z"
		/>
	<path class="st1" d="M135.83,33.95c0,0.21-0.5,0.38-1.49,0.51c-0.99,0.13-1.99,0.2-2.98,0.2s-1.64-0.06-1.92-0.17
		c-0.28-0.11-0.43-0.29-0.43-0.54V18.28c0-0.42,0.53-0.72,1.6-0.9c1.06-0.18,2.41-0.27,4.03-0.27s2.68,0,3.15,0.01
		c0.48,0.01,1.04,0.04,1.69,0.09s1.17,0.13,1.55,0.24s0.8,0.26,1.27,0.44s0.82,0.41,1.08,0.69s0.51,0.62,0.76,1.01
		c0.44,0.7,0.66,1.69,0.66,2.98c0,1.29-0.21,2.38-0.65,3.26s-1,1.56-1.72,2.01c1.87,2.94,2.8,4.81,2.8,5.6s-1.6,1.19-4.8,1.19
		c-0.93,0-1.57-0.04-1.92-0.12c-0.36-0.08-0.58-0.26-0.68-0.54l-1.58-5.02l-0.41-0.02V33.95z M135.83,25.2h0.63
		c0.94,0,1.41-0.73,1.41-2.19c0-0.75-0.13-1.27-0.38-1.58s-0.54-0.46-0.86-0.46h-0.8V25.2z"/>
	<path class="st1" d="M158.8,34.65h-10.33c-0.8,0-1.33-0.06-1.61-0.17c-0.28-0.11-0.41-0.29-0.41-0.54V18.53
		c0-0.42,0.19-0.72,0.57-0.9s1.07-0.27,2.06-0.27h9.79c0.34,0,0.51,0.56,0.51,1.69s-0.07,1.99-0.22,2.58s-0.34,0.89-0.58,0.89
		c-1.06,0-2.83-0.11-5.33-0.32v1.63c2.4-0.1,3.97-0.15,4.7-0.15c0.44,0,0.66,0.51,0.66,1.53c0,1.02-0.08,1.8-0.26,2.33
		c-0.17,0.53-0.4,0.79-0.69,0.79l-4.41-0.1v1.56c2.83-0.21,4.78-0.32,5.85-0.32c0.34,0,0.51,0.57,0.51,1.71s-0.07,2-0.22,2.58
		C159.24,34.36,159.04,34.65,158.8,34.65z"/>
	<path class="st1" d="M167.29,34.39c-0.46,0.18-1.3,0.27-2.5,0.27c-1.2,0-2.21-0.11-3.01-0.33c-0.8-0.22-1.21-0.5-1.21-0.84
		c0-0.39,0.72-2.88,2.17-7.47c1.44-4.59,2.27-7.23,2.48-7.93c0.08-0.21,0.73-0.39,1.96-0.52c1.23-0.14,2.54-0.21,3.95-0.21
		c1.4,0,2.18,0.24,2.33,0.73c3.07,10.2,4.6,15.38,4.6,15.54c0,0.16-0.1,0.33-0.29,0.49c-0.46,0.36-1.36,0.54-2.7,0.54
		c-2.88,0-4.34-0.34-4.41-1.02l-0.17-1.58h-2.34l-0.12,1.36C168,33.88,167.75,34.21,167.29,34.39z M169.98,27.42l-0.37-4.38h-0.54
		l-0.41,4.38H169.98z"/>
	<path class="st1" d="M183.04,34.65c-0.41,0-1,0-1.77,0c-0.77,0-1.3-0.06-1.57-0.17c-0.28-0.11-0.41-0.29-0.41-0.54V18.58
		c0-0.37,0.5-0.67,1.5-0.89s2.07-0.33,3.2-0.33s1.95,0.15,2.44,0.44c0.49,0.29,0.77,0.6,0.85,0.93l1.66,6.43h0.22l1.56-6.14
		c0.11-0.44,0.65-0.82,1.6-1.16c0.95-0.33,1.99-0.5,3.13-0.5s1.98,0.09,2.52,0.27s0.82,0.41,0.82,0.68v15.64
		c0,0.21-0.46,0.38-1.39,0.51c-0.93,0.13-2.05,0.2-3.39,0.2c-1.33,0-2-0.24-2-0.71c0-1.28,0.14-3.57,0.41-6.85h-0.22l-1.27,6.36
		c-0.05,0.24-0.25,0.42-0.6,0.54c-0.35,0.11-0.87,0.17-1.57,0.17s-1.12-0.05-1.28-0.15c-0.15-0.1-0.26-0.28-0.3-0.56l-1.32-6.36
		h-0.22c0.29,3.35,0.44,5.63,0.44,6.85C186.08,34.37,185.07,34.6,183.04,34.65z"/>
</g>
<g>
	<g>
	</g>
</g>
<g>
	<g>
	</g>
</g>
<g>
	<ellipse class="st2" cx="24.44" cy="25.75" rx="24.44" ry="25.19"/>
	<path class="st3" d="M31.87,44.38H17.57c-3,0-5.43-2.43-5.43-5.43V21.4c0-3,2.43-5.43,5.43-5.43h14.29c3,0,5.43,2.43,5.43,5.43
		v17.56C37.29,41.95,34.86,44.38,31.87,44.38z"/>
	<rect x="17.75" y="44.38" class="st4" width="13.59" height="8.21"/>
	<path class="st5" d="M37.57,24.74H11.51c-1.92,0-3.47,1.55-3.47,3.47s1.55,3.47,3.47,3.47h14.71v4.15c0,1.41,1.15,2.56,2.56,2.56h0
		c1.41,0,2.56-1.15,2.56-2.56v-4.15h6.24c1.92,0,3.47-1.55,3.47-3.47S39.49,24.74,37.57,24.74z"/>
	<path class="st2" d="M37.65,30.18h-26c-1.02,0-1.85-0.83-1.85-1.85v-0.26c0-1.02,0.83-1.85,1.85-1.85h26
		c1.02,0,1.85,0.83,1.85,1.85v0.26C39.5,29.35,38.67,30.18,37.65,30.18z"/>
	<path class="st6" d="M14.35,16.47c0,0,9.46-12.12,20.65,0C35,16.47,24.78,26.35,14.35,16.47z"/>
</g>
</svg>
